<mxfile host="app.diagrams.net" modified="2023-09-11T06:07:17.661Z" agent="Mozilla/5.0 (Macintosh; Intel Mac OS X 10_15_7) AppleWebKit/605.1.15 (KHTML, like Gecko) Version/16.6 Safari/605.1.15" version="21.7.4" etag="lAuYOHAR5zNEsJhJoMfH" type="github">
  <diagram name="Page-1" id="AZxYX-zm1xMtj_r3_Z3z">
    <mxGraphModel>
      <root>
        <mxCell id="0" />
        <mxCell id="1" parent="0" />
      </root>
    </mxGraphModel>
  </diagram>
</mxfile>
